# xmcd
#
# Track frame offsets: 
#        150
#        28142
#        62529
#
# Disc length: 1204 seconds
#
# Revision: 2
# Processed by: cddbd v1.5.2PL0 Copyright (c) Steve Scherf et al.
# Submitted via: ExactAudioCopyFreeDBPlugin 1.0
#
DISCID=1f04b203
DTITLE=THE ALFEE - 生きよう
DYEAR=2012
DGENRE=JPop
TTITLE0=生きよう
TTITLE1=I Love You(Live Version)
TTITLE2=生きよう（Original Instrumental)
EXTD=
EXTT0=
EXTT1=
EXTT2=
PLAYORDER=
